<?xml version="1.0" encoding="utf-8"?>
<!-- Generator: Adobe Illustrator 27.0.1, SVG Export Plug-In . SVG Version: 6.00 Build 0)  -->
<svg version="1.1" id="Layer_1" xmlns="http://www.w3.org/2000/svg" xmlns:xlink="http://www.w3.org/1999/xlink" x="0px" y="0px"
	 viewBox="0 0 100 100" style="enable-background:new 0 0 100 100;" xml:space="preserve">
<style type="text/css">
	.st0{fill:#FDBA4D;}
	.st1{fill:#E2A144;}
	.st2{fill:#0D3A11;}
	.st3{fill:#18601F;}
	.st4{opacity:0.64;fill:#FFFFFF;}
	.st5{fill:#FFFFFF;}
</style>
<g>
	<path class="st0" d="M92,66.4H26c-4.4,0-8-3.6-8-8v-48c0-4.4,3.6-8,8-8h66c4.4,0,8,3.6,8,8v48C100,62.8,96.4,66.4,92,66.4z"/>
	<path class="st1" d="M88.1,66.4H52c-4.4,0-8-3.6-8-8V32.3c0-4.4,3.6-8,8-8h28.1c4.4,0,8,3.6,8,8V66.4z"/>
	<path class="st2" d="M74,19.6H8c-4.4,0-8,3.6-8,8v48c0,4.4,3.6,8,8,8h42.9c0,0.1,0,0.2,0,0.2c-0.4,2.9-1.3,5-1.3,5
		c-0.8,1.8-1.6,3.7-2.5,4.9c-0.1,0.1-0.5,0.6-0.7,1.4c-0.1,0.6,0,1.1,0,1.2c0.1,0.2,0.2,0.7,0.7,1.1c0.5,0.4,1.1,0.3,1.4,0.3
		c1-0.1,1.4-0.6,2.9-1.6c0.8-0.6-0.6,0.5,1.8-1.2c2.2-1.6,3.3-2.3,4.2-3c1.6-1.3,2.8-2.3,3.7-3.2c1.7-1.6,2.6-2.4,3.6-3.5
		c0.5-0.6,0.9-1.1,1.2-1.5h8c4.4,0,8-3.6,8-8v-48C82,23.2,78.4,19.6,74,19.6z"/>
	<path class="st3" d="M74,19.6H16.3c-4.4,0-8,3.6-8,8v48c0,4.4,3.6,8,8,8h40.4c0.1,0.3,0.1,0.7,0.2,1c0.7,4.7-2.7,8.9-3.7,10.1
		c1.7-1.1,3.1-2.1,4.2-3c1.7-1.3,2.9-2.5,3.7-3.2c1.7-1.6,2.6-2.4,3.6-3.5c0.5-0.6,0.9-1.1,1.2-1.5h8c4.4,0,8-3.6,8-8v-48
		C82,23.2,78.4,19.6,74,19.6z"/>
	<circle class="st4" cx="43.9" cy="52.4" r="4.3"/>
	<circle class="st4" cx="29.9" cy="52.4" r="4.3"/>
	<circle class="st4" cx="58.1" cy="52.4" r="4.3"/>
	<path class="st5" d="M46,48.7c-1.3,0.7-2.2,2.1-2.2,3.8s0.9,3,2.2,3.8c1.3-0.7,2.2-2.1,2.2-3.8S47.3,49.4,46,48.7z"/>
	<path class="st5" d="M60.2,48.7c-1.3,0.7-2.2,2.1-2.2,3.8s0.9,3,2.2,3.8c1.3-0.7,2.2-2.1,2.2-3.8S61.6,49.4,60.2,48.7z"/>
	<path class="st5" d="M32,48.7c-1.3,0.7-2.2,2.1-2.2,3.8s0.9,3,2.2,3.8c1.3-0.7,2.2-2.1,2.2-3.8S33.4,49.4,32,48.7z"/>
</g>
</svg>
