<svg xmlns="http://www.w3.org/2000/svg" xmlns:xlink="http://www.w3.org/1999/xlink" width="64" height="64" viewBox="0 0 64 64"><defs><clipPath id="b"><rect width="64" height="64"/></clipPath></defs><g id="a" clip-path="url(#b)"><path d="M42,37.333A2.667,2.667,0,0,1,39.333,40H18a2.667,2.667,0,0,1,0-5.333H39.333A2.667,2.667,0,0,1,42,37.333Zm-10.667,8H18a2.667,2.667,0,1,0,0,5.333H31.333a2.667,2.667,0,1,0,0-5.333Zm24-17.373V50.667A13.349,13.349,0,0,1,42,64H15.333A13.349,13.349,0,0,1,2,50.667V13.333A13.349,13.349,0,0,1,15.333,0h12.04a18.555,18.555,0,0,1,13.2,5.467l9.291,9.3A18.536,18.536,0,0,1,55.333,27.96ZM36.8,9.237A13.36,13.36,0,0,0,34,7.157V18.667a2.667,2.667,0,0,0,2.667,2.667H48.176a13.288,13.288,0,0,0-2.083-2.8ZM50,27.96c0-.44-.085-.861-.125-1.293H36.667a8,8,0,0,1-8-8V5.459c-.432-.04-.856-.125-1.293-.125H15.333a8,8,0,0,0-8,8V50.667a8,8,0,0,0,8,8H42a8,8,0,0,0,8-8Z" transform="translate(3.333)" fill="#fdba4d"/></g></svg>