<?xml version="1.0" encoding="utf-8"?>
<!-- Generator: Adobe Illustrator 27.0.1, SVG Export Plug-In . SVG Version: 6.00 Build 0)  -->
<svg version="1.1" id="Layer_1" xmlns="http://www.w3.org/2000/svg" xmlns:xlink="http://www.w3.org/1999/xlink" x="0px" y="0px"
	 viewBox="0 0 100 100" style="enable-background:new 0 0 100 100;" xml:space="preserve">
<style type="text/css">
	.st0{fill:#E2E2E2;}
	.st1{fill:#EFEFEF;}
	.st2{fill:#18601F;enable-background:new    ;}
	.st3{fill:#E2A144;}
	.st4{fill:#FDBA4D;}
	.st5{fill:#FF4756;}
</style>
<path class="st0" d="M77.8,54H22.2c-1.3,0-2.5,0.8-3.1,2L2,95.3c-1,2.2,0.7,4.7,3.1,4.7h89.8c2.4,0,4-2.5,3.1-4.7L80.9,56
	C80.3,54.8,79.1,54,77.8,54z"/>
<polygon class="st1" points="74.4,58.3 25.6,58.3 9.4,95.7 90.6,95.7 "/>
<g>
	<polygon class="st2" points="79.2,69.5 55.1,93.7 38.6,77.2 57.5,58.3 74.4,58.3 	"/>
	<polygon class="st3" points="51,95.7 20.1,95.7 35.5,80.2 	"/>
	<polygon class="st4" points="51.5,58.3 14.1,95.7 9.4,95.7 25.6,58.3 	"/>
	<polygon class="st4" points="90.6,95.7 58.9,95.7 81,73.6 	"/>
</g>
<path class="st5" d="M50,0C33.9,0,20.9,13,20.9,29.1c0,7.5,5.8,19.2,17.2,34.8c4.8,6.5,14,8,20.5,3.2c1.2-0.9,2.3-2,3.2-3.2
	c11.4-15.6,17.2-27.3,17.2-34.8C79.1,13,66.1,0,50,0z M50,40.7c-6.4,0-11.7-5.2-11.7-11.7S43.6,17.4,50,17.4S61.7,22.6,61.7,29
	S56.4,40.7,50,40.7z"/>
</svg>
