<svg xmlns="http://www.w3.org/2000/svg" xmlns:xlink="http://www.w3.org/1999/xlink" width="64" height="64" viewBox="0 0 64 64"><defs><clipPath id="b"><rect width="64" height="64"/></clipPath></defs><g id="a" clip-path="url(#b)"><path d="M63.675,64.458a14.459,14.459,0,0,1-10.16-4.141L43,50.6a29.349,29.349,0,1,1,41.429-.072L73.777,60.367a14.381,14.381,0,0,1-10.1,4.09Zm0-58.7a24.013,24.013,0,0,0-16.98,40.994l10.5,9.7A9.381,9.381,0,0,0,70.1,56.5L80.73,46.68A24.018,24.018,0,0,0,63.675,5.758Zm0,42.691A18.677,18.677,0,1,1,82.352,29.771,18.677,18.677,0,0,1,63.675,48.449Zm0-32.018A13.341,13.341,0,1,0,77.016,29.771,13.341,13.341,0,0,0,63.675,16.431Zm4.555,17.9a2.668,2.668,0,0,0,0-3.773l-1.886-1.886V24.435a2.668,2.668,0,1,0-5.336,0v5.336a2.668,2.668,0,0,0,.781,1.886l2.669,2.669A2.668,2.668,0,0,0,68.23,34.326Z" transform="translate(-31.692 -0.458)" fill="#fdba4d"/></g></svg>