<?xml version="1.0" encoding="UTF-8"?>
<svg id="Layer_1" data-name="Layer 1" xmlns="http://www.w3.org/2000/svg" viewBox="0 0 100 100">
  <defs>
    <style>
      .cls-1 {
        fill: #5e8f63;
      }

      .cls-2 {
        fill: #b1dbfc;
        isolation: isolate;
      }

      .cls-3 {
        fill: #fff;
      }

      .cls-4 {
        fill: #e2e2e2;
      }

      .cls-5 {
        fill: #18601f;
      }

      .cls-6 {
        fill: none;
        stroke: #fff;
        stroke-miterlimit: 10;
        stroke-width: 2px;
      }

      .cls-7 {
        fill: #50c124;
      }

      .cls-8 {
        fill: #efefef;
      }
    </style>
  </defs>
  <g>
    <rect class="cls-8" x="13.83" width="72.33" height="97.87" rx="3" ry="3"/>
    <path class="cls-4" d="M16.83,0h8.85V97.87h-8.85c-1.66,0-3-1.34-3-3V3c0-1.66,1.34-3,3-3Z"/>
    <rect class="cls-1" x="20.11" y="33.58" width="59.9" height="27.18" rx="3" ry="3"/>
    <rect class="cls-3" x="23.03" y="44.68" width="5" height="5" rx="1" ry="1"/>
    <rect class="cls-3" x="23.03" y="52.68" width="5" height="5" rx="1" ry="1"/>
    <rect class="cls-5" x="31.03" y="52.68" width="25.84" height="5" rx="1" ry="1"/>
    <rect class="cls-3" x="23.03" y="36.68" width="5" height="5" rx="1" ry="1"/>
    <rect class="cls-5" x="31.03" y="36.68" width="25.84" height="5" rx="1" ry="1"/>
    <rect class="cls-5" x="31.03" y="44.7" width="25.84" height="5" rx="1" ry="1"/>
    <rect class="cls-5" x="59.74" y="52.68" width="17.24" height="5" rx="1" ry="1"/>
    <rect class="cls-5" x="59.74" y="36.68" width="17.24" height="5" rx="1" ry="1"/>
    <rect class="cls-1" x="62.59" y="20.32" width="17.24" height="2.93" rx="1.47" ry="1.47"/>
    <rect class="cls-2" x="20.11" y="70.7" width="35.66" height="2.93" rx="1.47" ry="1.47"/>
    <rect class="cls-2" x="20.11" y="76.58" width="32.03" height="2.93" rx="1.47" ry="1.47"/>
    <rect class="cls-2" x="20.11" y="82.45" width="27.38" height="2.93" rx="1.47" ry="1.47"/>
    <rect class="cls-1" x="48.83" y="10.46" width="31.08" height="5.88" rx="1.47" ry="1.47"/>
    <rect class="cls-5" x="48.83" y="10.46" width="5.88" height="5.88" rx="1.47" ry="1.47"/>
    <rect class="cls-5" x="59.74" y="44.7" width="17.24" height="5" rx="1" ry="1"/>
  </g>
  <circle class="cls-1" cx="73.89" cy="83.24" r="11.7"/>
  <path class="cls-5" d="M81.82,68.65c4.31,2.44,7.34,6.63,8.31,11.49,1.71,9.12-4.29,17.9-13.41,19.61-.22,.04-.44,.08-.66,.11-3.67,.46-7.39-.24-10.64-1.99-3.26-1.93-5.8-4.88-7.23-8.4-1.55-3.94-1.57-8.31-.06-12.26l1.48-2.94c1.03-1.42,2.19-2.73,3.49-3.91,1.46-1.07,3.02-1.98,4.68-2.72,1.64-.53,3.33-.87,5.04-1.01,3.13-.14,6.24,.56,9.01,2.02Zm-4.64,25.16c5.8-1.9,8.96-8.13,7.06-13.93-1.09-3.34-3.71-5.96-7.05-7.06-1.64-.65-3.44-.81-5.17-.47-6.04,.93-10.19,6.59-9.26,12.63,.93,6.04,6.59,10.19,12.63,9.26,.61-.09,1.21-.24,1.79-.43h0Z"/>
  <path class="cls-7" d="M70.71,86.71l.21,.22-.21-.22Z"/>
  <g>
    <path class="cls-6" d="M72.44,76.12v9.81"/>
    <path class="cls-6" d="M71.44,85.14h8.15"/>
  </g>
</svg>