<?xml version="1.0" encoding="UTF-8"?>
<svg id="Layer_1" data-name="Layer 1" xmlns="http://www.w3.org/2000/svg" viewBox="0 0 100 100">
  <defs>
    <style>
      .cls-1 {
        fill: #b1dbfc;
      }

      .cls-1, .cls-2, .cls-3 {
        isolation: isolate;
      }

      .cls-4 {
        fill: #fff;
      }

      .cls-5 {
        fill: #e2e2e2;
      }

      .cls-2 {
        fill: #ff656f;
      }

      .cls-3 {
        fill: #ff4756;
      }

      .cls-6 {
        fill: #efefef;
      }
    </style>
  </defs>
  <rect class="cls-6" y="15" width="100" height="70" rx="3" ry="3"/>
  <path class="cls-5" d="M3,15H11.85V85H3c-1.66,0-3-1.34-3-3V18c0-1.66,1.34-3,3-3Z"/>
  <rect class="cls-2" x="7.72" y="26" width="40" height="48" rx="3" ry="3"/>
  <path class="cls-3" d="M10.72,26h4.87v48h-4.87c-1.66,0-3-1.34-3-3V29c0-1.66,1.34-3,3-3Z"/>
  <rect class="cls-2" x="54.11" y="34.34" width="39.75" height="5.88" rx="1.47" ry="1.47"/>
  <rect class="cls-3" x="54.11" y="34.34" width="5.88" height="5.88" rx="1.47" ry="1.47"/>
  <g>
    <rect class="cls-1" x="54.11" y="46.86" width="9.06" height="2.93" rx="1.47" ry="1.47"/>
    <rect class="cls-1" x="65.66" y="46.86" width="28.2" height="2.93" rx="1.47" ry="1.47"/>
    <rect class="cls-1" x="54.11" y="54.79" width="9.06" height="2.93" rx="1.47" ry="1.47"/>
    <rect class="cls-1" x="65.66" y="54.79" width="28.2" height="2.93" rx="1.47" ry="1.47"/>
    <rect class="cls-1" x="54.11" y="62.73" width="9.06" height="2.93" rx="1.47" ry="1.47"/>
    <rect class="cls-1" x="65.66" y="62.73" width="28.2" height="2.93" rx="1.47" ry="1.47"/>
  </g>
  <g>
    <circle class="cls-4" cx="27.72" cy="41.97" r="7.71"/>
    <path class="cls-4" d="M27.72,52.25c-6.38,0-11.55,5.18-11.56,11.56,0,.71,.58,1.28,1.28,1.28h20.55c.71,0,1.28-.58,1.28-1.28,0-6.38-5.18-11.55-11.56-11.56Z"/>
  </g>
</svg>