<svg xmlns="http://www.w3.org/2000/svg" xmlns:xlink="http://www.w3.org/1999/xlink" width="120" height="120" viewBox="0 0 120 120"><defs><clipPath id="b"><rect width="120" height="120"/></clipPath></defs><g id="a" clip-path="url(#b)"><circle cx="60" cy="60" r="60" fill="#fff5e4"/><path d="M44.856,22.538l-.074-3.79A9.633,9.633,0,0,0,41.637,0H22.318A9.637,9.637,0,0,0,19.1,18.726v3.812A16.118,16.118,0,0,0,3,38.637V61.175a16.118,16.118,0,0,0,16.1,16.1H44.856a16.118,16.118,0,0,0,16.1-16.1V38.637a16.118,16.118,0,0,0-16.1-16.1ZM22.318,6.439H41.637a3.22,3.22,0,0,1,0,6.439H22.318a3.22,3.22,0,0,1,0-6.439Zm32.2,54.735a9.659,9.659,0,0,1-9.659,9.659H19.1a9.659,9.659,0,0,1-9.659-9.659V38.637A9.659,9.659,0,0,1,19.1,28.978h3.22a3.22,3.22,0,0,0,3.22-3.22V19.318H38.33l.087,6.485a3.22,3.22,0,0,0,3.22,3.175h3.22a9.659,9.659,0,0,1,9.659,9.659ZM44.856,48.3a3.22,3.22,0,0,1-3.22,3.22H35.2v6.439a3.22,3.22,0,1,1-6.439,0V51.516H22.318a3.22,3.22,0,0,1,0-6.439h6.439V38.637a3.22,3.22,0,1,1,6.439,0v6.439h6.439A3.22,3.22,0,0,1,44.856,48.3Z" transform="translate(-3 42.727)" fill="#fdba4d"/></g></svg>