<svg xmlns="http://www.w3.org/2000/svg" xmlns:xlink="http://www.w3.org/1999/xlink" width="120" height="120" viewBox="0 0 120 120"><defs><clipPath id="b"><rect width="120" height="120"/></clipPath></defs><g id="a" clip-path="url(#b)"><circle cx="60" cy="60" r="60" fill="#dce7dd"/><path d="M50.3,45.076a3.22,3.22,0,0,1-3.22,3.22H21.318a3.22,3.22,0,0,1,0-6.439H47.076A3.22,3.22,0,0,1,50.3,45.076ZM37.417,54.735h-16.1a3.22,3.22,0,0,0,0,6.439h16.1a3.22,3.22,0,1,0,0-6.439ZM66.394,33.759V61.175a16.118,16.118,0,0,1-16.1,16.1H18.1A16.118,16.118,0,0,1,2,61.175V16.1A16.118,16.118,0,0,1,18.1,0H32.636A22.4,22.4,0,0,1,48.573,6.6L59.791,17.824A22.38,22.38,0,0,1,66.394,33.759ZM44.021,11.153a16.131,16.131,0,0,0-3.384-2.511v13.9a3.22,3.22,0,0,0,3.22,3.22h13.9a16.044,16.044,0,0,0-2.515-3.381ZM59.955,33.759c0-.531-.1-1.04-.151-1.562H43.856A9.659,9.659,0,0,1,34.2,22.538V6.591c-.522-.048-1.034-.151-1.562-.151H18.1A9.659,9.659,0,0,0,8.439,16.1V61.175A9.659,9.659,0,0,0,18.1,70.834H50.3a9.659,9.659,0,0,0,9.659-9.659Z" transform="translate(-2 42.727)" fill="#18601f"/></g></svg>