<svg xmlns="http://www.w3.org/2000/svg" xmlns:xlink="http://www.w3.org/1999/xlink" width="64" height="64" viewBox="0 0 64 64"><defs><clipPath id="b"><rect width="64" height="64"/></clipPath></defs><g id="a" clip-path="url(#b)"><path d="M45.407,4.78h-2.39V2.39a2.39,2.39,0,0,0-4.78,0V4.78H19.119V2.39a2.39,2.39,0,1,0-4.78,0V4.78h-2.39A11.963,11.963,0,0,0,0,16.729V45.407A11.963,11.963,0,0,0,11.949,57.356H45.407A11.963,11.963,0,0,0,57.356,45.407V16.729A11.963,11.963,0,0,0,45.407,4.78ZM11.949,9.559H45.407a7.178,7.178,0,0,1,7.169,7.169v2.39H4.78v-2.39A7.178,7.178,0,0,1,11.949,9.559ZM45.407,52.576H11.949A7.178,7.178,0,0,1,4.78,45.407V23.9h47.8V45.407A7.178,7.178,0,0,1,45.407,52.576ZM42.615,31.431a2.39,2.39,0,0,1-.06,3.379L31.228,45.727A7.166,7.166,0,0,1,21.121,45.7l-5.382-5a2.389,2.389,0,0,1,3.253-3.5l5.444,5.059a2.409,2.409,0,0,0,3.439.062l11.361-10.95a2.392,2.392,0,0,1,3.379.062Z" transform="translate(3.322 3.322)" fill="#fdba4d"/></g></svg>