<svg xmlns="http://www.w3.org/2000/svg" xmlns:xlink="http://www.w3.org/1999/xlink" width="120" height="120" viewBox="0 0 120 120"><defs><clipPath id="b"><rect width="120" height="120"/></clipPath></defs><g id="a" clip-path="url(#b)"><circle cx="60" cy="60" r="60" fill="#dce7dd"/><path d="M69.755,77.731a17.457,17.457,0,0,1-12.268-5L44.788,61a35.435,35.435,0,1,1,50.021-.087L81.951,72.792a17.364,17.364,0,0,1-12.2,4.939Zm0-70.874a28.994,28.994,0,0,0-20.5,49.5L61.926,68.066a11.327,11.327,0,0,0,15.586.061L90.347,56.266A29,29,0,0,0,69.755,6.857Zm0,51.545A22.551,22.551,0,1,1,92.305,35.851,22.551,22.551,0,0,1,69.755,58.4Zm0-38.658A16.108,16.108,0,1,0,85.862,35.851,16.108,16.108,0,0,0,69.755,19.743Zm5.5,21.607a3.222,3.222,0,0,0,0-4.555l-2.278-2.278V29.408a3.222,3.222,0,1,0-6.443,0v6.443a3.221,3.221,0,0,0,.943,2.277L70.7,41.35A3.222,3.222,0,0,0,75.254,41.35Z" transform="translate(-34.362 42.269)" fill="#18601f"/></g></svg>