<svg xmlns="http://www.w3.org/2000/svg" xmlns:xlink="http://www.w3.org/1999/xlink" width="64" height="64" viewBox="0 0 64 64"><defs><clipPath id="b"><rect width="64" height="64"/></clipPath></defs><g id="a" clip-path="url(#b)"><path d="M37.667,18.667l-.061-3.139A7.979,7.979,0,0,0,35,0H19a7.981,7.981,0,0,0-2.667,15.509v3.157A13.349,13.349,0,0,0,3,32V50.667A13.349,13.349,0,0,0,16.333,64H37.667A13.349,13.349,0,0,0,51,50.667V32A13.349,13.349,0,0,0,37.667,18.667ZM19,5.333H35a2.667,2.667,0,0,1,0,5.333H19a2.667,2.667,0,0,1,0-5.333ZM45.667,50.667a8,8,0,0,1-8,8H16.333a8,8,0,0,1-8-8V32a8,8,0,0,1,8-8H19a2.667,2.667,0,0,0,2.667-2.667V16H32.261l.072,5.371A2.667,2.667,0,0,0,35,24h2.667a8,8,0,0,1,8,8ZM37.667,40A2.667,2.667,0,0,1,35,42.667H29.667V48a2.667,2.667,0,0,1-5.333,0V42.667H19a2.667,2.667,0,1,1,0-5.333h5.333V32a2.667,2.667,0,1,1,5.333,0v5.333H35A2.667,2.667,0,0,1,37.667,40Z" transform="translate(5)" fill="#fdba4d"/></g></svg>