<?xml version="1.0" encoding="UTF-8"?>
<svg id="Layer_1" data-name="Layer 1" xmlns="http://www.w3.org/2000/svg" viewBox="0 0 100 100">
  <defs>
    <style>
      .cls-1 {
        fill: #b1dbfc;
        isolation: isolate;
      }

      .cls-2 {
        fill: #fff;
      }

      .cls-3 {
        fill: #e2e2e2;
      }

      .cls-4 {
        fill: #fdba4d;
      }

      .cls-5 {
        fill: #50c124;
      }

      .cls-6 {
        fill: #e2a144;
      }

      .cls-7 {
        fill: #efefef;
      }

      .cls-8 {
        fill: #f7c884;
      }

      .cls-9 {
        fill: #fcfdfe;
      }
    </style>
  </defs>
  <g>
    <rect class="cls-7" x="13.83" width="72.33" height="97.87" rx="3" ry="3"/>
    <path class="cls-3" d="M16.83,0h8.85V97.87h-8.85c-1.66,0-3-1.34-3-3V3c0-1.66,1.34-3,3-3Z"/>
    <rect class="cls-8" x="20.11" y="33.58" width="59.9" height="27.18" rx="3" ry="3"/>
    <rect class="cls-2" x="23.03" y="44.68" width="5" height="5" rx="1" ry="1"/>
    <rect class="cls-2" x="23.03" y="52.68" width="5" height="5" rx="1" ry="1"/>
    <rect class="cls-4" x="31.03" y="52.68" width="25.84" height="5" rx="1" ry="1"/>
    <rect class="cls-2" x="23.03" y="36.68" width="5" height="5" rx="1" ry="1"/>
    <rect class="cls-4" x="31.03" y="36.68" width="25.84" height="5" rx="1" ry="1"/>
    <rect class="cls-4" x="31.03" y="44.7" width="25.84" height="5" rx="1" ry="1"/>
    <rect class="cls-6" x="59.74" y="52.68" width="17.24" height="5" rx="1" ry="1"/>
    <rect class="cls-6" x="59.74" y="36.68" width="17.24" height="5" rx="1" ry="1"/>
    <rect class="cls-4" x="62.59" y="20.32" width="17.24" height="2.93" rx="1.47" ry="1.47"/>
    <rect class="cls-1" x="20.11" y="70.7" width="35.66" height="2.93" rx="1.47" ry="1.47"/>
    <rect class="cls-1" x="20.11" y="76.58" width="32.03" height="2.93" rx="1.47" ry="1.47"/>
    <rect class="cls-1" x="20.11" y="82.45" width="27.38" height="2.93" rx="1.47" ry="1.47"/>
    <rect class="cls-8" x="48.83" y="10.46" width="31.08" height="5.88" rx="1.47" ry="1.47"/>
    <rect class="cls-6" x="48.83" y="10.46" width="5.88" height="5.88" rx="1.47" ry="1.47"/>
    <rect class="cls-6" x="59.74" y="44.7" width="17.24" height="5" rx="1" ry="1"/>
  </g>
  <path class="cls-4" d="M81.82,68.65c4.31,2.44,7.34,6.63,8.31,11.49,1.71,9.12-4.29,17.9-13.41,19.61-.22,.04-.44,.08-.66,.11-3.67,.46-7.39-.24-10.64-1.99-3.26-1.93-5.8-4.88-7.23-8.4-1.55-3.94-1.57-8.31-.06-12.26l1.48-2.94c1.03-1.42,2.19-2.73,3.49-3.91,1.46-1.07,3.02-1.98,4.68-2.72,1.64-.53,3.33-.87,5.04-1.02,3.13-.14,6.24,.56,9.01,2.03Zm-4.64,25.16c5.8-1.9,8.96-8.13,7.06-13.93-1.09-3.34-3.71-5.96-7.05-7.06-1.64-.65-3.44-.81-5.17-.47-6.04,.93-10.19,6.59-9.26,12.63,.93,6.04,6.59,10.19,12.63,9.26,.61-.09,1.21-.24,1.79-.43h0Z"/>
  <path class="cls-8" d="M77.18,72.82c5.79,1.9,8.95,8.14,7.05,13.93-1.1,3.34-3.72,5.96-7.06,7.05-1.67-.84-3.17-1.98-4.42-3.37-.84-1.05-1.76-2.07-1.84-3.52,.33,.3,.65,.62,1,.91,.51,.58,1.4,.63,1.98,.11,.04-.04,.08-.08,.12-.12,2.06-2.02,4.1-4.06,6.12-6.13,.58-.53,.62-1.43,.09-2-.09-.1-.2-.19-.32-.26-.63-.41-1.47-.28-1.93,.32-1.49,1.49-3,2.97-4.46,4.48-.42,.43-.67,.44-1.07,0-.73-.82-1.52-1.59-2.29-2.38,.07-.1,.12-.22,.16-.34,.31-2.09,1.25-4.04,2.7-5.59,1.23-1.23,2.64-2.28,4.18-3.1Z"/>
  <path class="cls-6" d="M70.91,86.91c.07,1.45,1,2.47,1.84,3.52,1.25,1.39,2.75,2.53,4.42,3.37-5.81,1.92-12.07-1.23-13.99-7.04-1.92-5.81,1.23-12.07,7.04-13.99,.58-.19,1.18-.34,1.79-.43,1.73-.34,3.53-.18,5.17,.47-1.54,.82-2.95,1.87-4.18,3.1-1.45,1.55-2.39,3.5-2.7,5.59-.04,.12-.09,.24-.16,.34-.15-.12-.3-.24-.44-.37-.95-.91-1.76-1.02-2.43-.31s-.54,1.48,.4,2.43c1.02,1.03,2.03,2.07,3.04,3.11l.21,.22h0Z"/>
  <path class="cls-9" d="M70.71,86.71l-3.04-3.11c-.94-.96-1.07-1.73-.4-2.43s1.48-.6,2.43,.31c.14,.13,.29,.25,.44,.37,.77,.79,1.55,1.56,2.29,2.38,.4,.45,.65,.44,1.07,0,1.46-1.52,2.97-2.99,4.46-4.48,.46-.59,1.3-.73,1.93-.32,.67,.4,.9,1.27,.5,1.94-.07,.12-.16,.23-.26,.32-2.02,2.07-4.06,4.11-6.12,6.13-.51,.58-1.4,.63-1.98,.12-.04-.04-.08-.08-.12-.12-.34-.29-.66-.61-1-.91h0s-.2-.2-.2-.2Z"/>
  <path class="cls-5" d="M70.71,86.71l.21,.22-.21-.22Z"/>
</svg>