<svg xmlns="http://www.w3.org/2000/svg" xmlns:xlink="http://www.w3.org/1999/xlink" width="120" height="120" viewBox="0 0 120 120"><defs><clipPath id="b"><rect width="120" height="120"/></clipPath></defs><g id="a" clip-path="url(#b)"><circle cx="60" cy="60" r="60" fill="#fff5e4"/><path d="M61.175,6.439h-3.22V3.22a3.22,3.22,0,1,0-6.439,0v3.22H25.758V3.22a3.22,3.22,0,1,0-6.439,0v3.22H16.1A16.117,16.117,0,0,0,0,22.538V61.175a16.117,16.117,0,0,0,16.1,16.1H61.175a16.117,16.117,0,0,0,16.1-16.1V22.538A16.117,16.117,0,0,0,61.175,6.439ZM16.1,12.879H61.175a9.671,9.671,0,0,1,9.659,9.659v3.22H6.439v-3.22A9.671,9.671,0,0,1,16.1,12.879ZM61.175,70.834H16.1a9.671,9.671,0,0,1-9.659-9.659V32.2H70.834V61.175A9.671,9.671,0,0,1,61.175,70.834ZM57.414,42.346a3.22,3.22,0,0,1-.08,4.553L42.072,61.606a9.654,9.654,0,0,1-13.616-.042l-7.251-6.736a3.219,3.219,0,0,1,4.382-4.717l7.335,6.816a3.245,3.245,0,0,0,4.633.084L52.861,42.259a3.223,3.223,0,0,1,4.553.084Z" transform="translate(0 42.727)" fill="#fdba4d"/></g></svg>