<?xml version="1.0" encoding="utf-8"?>
<!-- Generator: Adobe Illustrator 27.0.1, SVG Export Plug-In . SVG Version: 6.00 Build 0)  -->
<svg version="1.1" id="Layer_1" xmlns="http://www.w3.org/2000/svg" xmlns:xlink="http://www.w3.org/1999/xlink" x="0px" y="0px"
	 viewBox="0 0 250 250" style="enable-background:new 0 0 250 250;" xml:space="preserve">
<style type="text/css">
	.st0{fill:#FDBA4D;}
	.st1{fill:#FFFFFF;}
</style>
<rect class="st0" width="250" height="250"/>
<g>
	<path class="st1" d="M119.8,141.7c-24.4-3.6-40.3-24.7-38.6-47.3c1.7-22.7,20.6-40.4,43.5-40.6c22.8-0.2,42,17.2,44.1,40.2
		c2,22.2-13.4,43.9-38.6,47.6c3.5,0.5,7,0.8,10.4,1.5c31.1,6.3,53,24.1,65.8,53.2c0.7,1.7,0.5,2.7-0.7,4
		c-18.9,19.8-41.8,31.7-69,34.4c-36.3,3.5-67.2-8.3-92.5-34.6c-1-1.1-1.3-2-0.7-3.4c13-30,35.6-47.9,67.7-53.9
		C114,142.2,116.9,142,119.8,141.7z"/>
</g>
</svg>
