<svg xmlns="http://www.w3.org/2000/svg" xmlns:xlink="http://www.w3.org/1999/xlink" width="75" height="75" viewBox="0 0 75 75"><defs><clipPath id="b"><rect width="75" height="75"/></clipPath></defs><g id="a" clip-path="url(#b)"><g transform="translate(-4691 -2623.724)"><circle cx="2.5" cy="2.5" r="2.5" transform="translate(4693 2625.724)" fill="#18601f"/><circle cx="2.5" cy="2.5" r="2.5" transform="translate(4706 2625.724)" fill="#18601f"/><circle cx="2.5" cy="2.5" r="2.5" transform="translate(4720 2625.724)" fill="#18601f"/><circle cx="2.5" cy="2.5" r="2.5" transform="translate(4733 2625.724)" fill="#18601f"/><circle cx="2.5" cy="2.5" r="2.5" transform="translate(4746 2625.724)" fill="#18601f"/><circle cx="2.5" cy="2.5" r="2.5" transform="translate(4759 2625.724)" fill="#18601f"/><circle cx="2.5" cy="2.5" r="2.5" transform="translate(4693 2639.724)" fill="#18601f"/><circle cx="2.5" cy="2.5" r="2.5" transform="translate(4706 2639.724)" fill="#18601f"/><circle cx="2.5" cy="2.5" r="2.5" transform="translate(4720 2639.724)" fill="#18601f"/><circle cx="2.5" cy="2.5" r="2.5" transform="translate(4733 2639.724)" fill="#18601f"/><circle cx="2.5" cy="2.5" r="2.5" transform="translate(4746 2639.724)" fill="#18601f"/><circle cx="2.5" cy="2.5" r="2.5" transform="translate(4759 2639.724)" fill="#18601f"/><circle cx="2.5" cy="2.5" r="2.5" transform="translate(4693 2652.724)" fill="#18601f"/><circle cx="2.5" cy="2.5" r="2.5" transform="translate(4706 2652.724)" fill="#18601f"/><circle cx="2.5" cy="2.5" r="2.5" transform="translate(4720 2652.724)" fill="#18601f"/><circle cx="2.5" cy="2.5" r="2.5" transform="translate(4733 2652.724)" fill="#18601f"/><circle cx="2.5" cy="2.5" r="2.5" transform="translate(4746 2652.724)" fill="#18601f"/><circle cx="2.5" cy="2.5" r="2.5" transform="translate(4759 2652.724)" fill="#18601f"/><circle cx="2.5" cy="2.5" r="2.5" transform="translate(4693 2665.724)" fill="#18601f"/><circle cx="2.5" cy="2.5" r="2.5" transform="translate(4706 2665.724)" fill="#18601f"/><circle cx="2.5" cy="2.5" r="2.5" transform="translate(4720 2665.724)" fill="#18601f"/><circle cx="2.5" cy="2.5" r="2.5" transform="translate(4733 2665.724)" fill="#18601f"/><circle cx="2.5" cy="2.5" r="2.5" transform="translate(4746 2665.724)" fill="#18601f"/><circle cx="2.5" cy="2.5" r="2.5" transform="translate(4759 2665.724)" fill="#18601f"/><circle cx="2.5" cy="2.5" r="2.5" transform="translate(4693 2678.724)" fill="#18601f"/><circle cx="2.5" cy="2.5" r="2.5" transform="translate(4706 2678.724)" fill="#18601f"/><circle cx="2.5" cy="2.5" r="2.5" transform="translate(4720 2678.724)" fill="#18601f"/><circle cx="2.5" cy="2.5" r="2.5" transform="translate(4733 2678.724)" fill="#18601f"/><circle cx="2.5" cy="2.5" r="2.5" transform="translate(4746 2678.724)" fill="#18601f"/><circle cx="2.5" cy="2.5" r="2.5" transform="translate(4759 2678.724)" fill="#18601f"/><circle cx="2.5" cy="2.5" r="2.5" transform="translate(4693 2692.724)" fill="#18601f"/><circle cx="2.5" cy="2.5" r="2.5" transform="translate(4706 2692.724)" fill="#18601f"/><circle cx="2.5" cy="2.5" r="2.5" transform="translate(4720 2692.724)" fill="#18601f"/><circle cx="2.5" cy="2.5" r="2.5" transform="translate(4733 2692.724)" fill="#18601f"/><circle cx="2.5" cy="2.5" r="2.5" transform="translate(4746 2692.724)" fill="#18601f"/><circle cx="2.5" cy="2.5" r="2.5" transform="translate(4759 2692.724)" fill="#18601f"/></g></g></svg>