<svg xmlns="http://www.w3.org/2000/svg" xmlns:xlink="http://www.w3.org/1999/xlink" width="165" height="60" viewBox="0 0 165 60"><defs><clipPath id="b"><rect width="165" height="60"/></clipPath></defs><g id="a" clip-path="url(#b)"><g transform="translate(7 6)"><g transform="translate(0 0)"><path d="M0,102.851q47.719,0,95.437.033c.611,0,1.772-.5,1.748.556-.02.872-1.142.429-1.748.429Q47.719,103.9,0,103.888Z" transform="translate(0 -76.092)" fill="#18601f"/><path d="M186.5,34.367c-.633-.316-1.087-.554-1.551-.772-1.928-.9-1.929-.9-3.413.659a1.548,1.548,0,0,1-2.68-.428.585.585,0,0,1,.053-.592,4.734,4.734,0,0,1,6.518-2.342c1.806.751,3.469,1.874,5.607,1.794,1.053-.039.4,1.092.527,1.677.1.446.114,1-.647.963-.345-.018-.692,0-1.037,0-.483,0-.887.126-.863.705a.815.815,0,0,0,.805.859q2.982.047,5.965,0c.637-.01.863-.51.89-1.077a9.093,9.093,0,0,0,0-1.683c-.159-1.135.243-1.458,1.4-1.455s1.557.324,1.415,1.46a10.9,10.9,0,0,0,.015,1.941.788.788,0,0,0,.8.841.8.8,0,0,0,.914-.861c.033-.82.051-1.643.013-2.462-.032-.687.249-.868.911-.887,2-.058,2-.087,2,1.865,0,.475-.008.951.009,1.426.021.548.277.916.865.915a.83.83,0,0,0,.871-.921c.03-.95.072-1.9.013-2.851-.081-1.307.855-.891,1.5-.927.668-.038,1.441-.2,1.321.963a23.548,23.548,0,0,0-.014,2.462c0,.821.327,1.3,1.237,1.282,1.3-.028,2.594-.022,3.891,0,.826.012,1.186-.375,1.163-1.183-.016-.561,0-1.124,0-1.685,0-1.836.583-2.267,2.393-1.851.479.11.509.395.5.748-.026,1.251.024,2.512-.118,3.751a3.4,3.4,0,0,1-3.207,3.039,23.861,23.861,0,0,1-5.3-.056,6.163,6.163,0,0,0-3.789.043c-.955.4-1.912-.581-2.776-.6s-1.8,1-2.773.6a6.739,6.739,0,0,0-3.787-.059,41,41,0,0,1-6.6.076,2.572,2.572,0,0,1-2.3-1.467c-.34-.651-.572-.533-1.026-.136a6.851,6.851,0,0,1-4.788,1.633c-2.2-.027-4.41,0-6.615-.009-.345,0-.787.1-1.019-.067-1.44-1.051-2.973-.617-4.558-.545a4,4,0,1,1-.023-8c.665-.037,1.449.379,1.694-.933.13-.7,1.438-.246,2.211-.289.6-.033.466.505.468.864.012,1.6.035,3.2-.005,4.8-.024.933.327,1.339,1.284,1.327,2.464-.031,4.929,0,7.393-.014C184.1,36.907,185.172,35.6,186.5,34.367Zm-16.744-.52c-.8.061-1.588.211-1.589,1.261a1.155,1.155,0,0,0,1.351,1.224c.963-.052,1.236-.726,1.279-1.618.04-.826-.365-.953-1.041-.867Z" transform="translate(-122.255 -22.094)" fill="#18601f"/><path d="M54.812,35.548c-.939-.438-1.78-.862-2.646-1.224a1.279,1.279,0,0,0-1.534.348,11.052,11.052,0,0,0-.97,1.042c-.868,1.244-1.4.16-2.039-.257-.87-.569-.373-1.047.085-1.545.351-.382.668-.794,1.023-1.171a3.757,3.757,0,0,1,4.258-.954c.96.387,1.909.8,2.841,1.255a5.7,5.7,0,0,0,3.213.8c1.087-.132.915.66.869,1.273-.044.586.4,1.58-.836,1.414a2.776,2.776,0,0,0-2.58,1.135,9.583,9.583,0,0,1-8.68,3.354c-1.239-.134-2.508.037-3.756-.04-.968-.059-1.316.172-1.3,1.239a3.541,3.541,0,0,1-3.4,3.436,48.788,48.788,0,0,1-5.57,0A4.761,4.761,0,0,1,29.379,40.9c-.037-.906-.008-1.814-.007-2.721,0-1.888.461-2.222,2.372-1.862.588.111.521.473.524.847.01,1.123-.008,2.247.007,3.37a2.029,2.029,0,0,0,2.182,2.309c1.382.04,2.766.008,4.149.011.669,0,1.283-.171,1.261-.956s-.649-.909-1.312-.9c-.994.012-1.989-.02-2.982.011-.562.017-.721-.209-.765-.752-.167-2.089-.168-2.111,1.863-2.111,4.322,0,8.646-.095,12.964.039C51.889,38.253,53.352,37.174,54.812,35.548Z" transform="translate(-21.739 -23.318)" fill="#18601f"/><path d="M254.609,140.51c-.553-.259-1.123-.472-1.637-.778-1.2-.719-2.256-.771-3.139.5-.219.316-.476.6-.944.206s-.2-.628.036-.949c1.228-1.643,2.218-1.862,4.139-1.047,1.255.532,2.4,1.41,3.875,1.327.378-.021.518.229.537.581.025.453-.194.618-.623.6-.752-.03-1.5.128-1.44,1.041.06.944.852,1.068,1.648,1.029.259-.013.519,0,.778,0,2.4,0,2.472-.071,2.557-2.441.016-.451-.136-1.007.646-.972s.556.615.588,1.045,0,.866.042,1.294a1.116,1.116,0,0,0,1.213,1.093,1.142,1.142,0,0,0,1.235-1.081,13.34,13.34,0,0,0,.056-1.681c0-.5.217-.686.711-.669s.526.333.529.7a12.972,12.972,0,0,0,.032,1.553,1.255,1.255,0,0,0,2.508-.061c.018-.561-.012-1.124.012-1.685.018-.428-.2-.974.609-1,.894-.025.654.582.686,1.053.015.215,0,.432,0,.648,0,2.027.745,2.62,2.741,2.185a1.347,1.347,0,0,0,1.091-1.411c.031-.6.019-1.21.011-1.814,0-.4.086-.66.571-.651.407.008.677.1.664.568a16.019,16.019,0,0,1-.1,2.709c-.371,1.815-3,2.7-4.827,1.595a1.146,1.146,0,0,0-1.537.008,1.972,1.972,0,0,1-2.428-.055c-.519-.411-.81-.339-1.3,0a2.052,2.052,0,0,1-2.54-.027c-.526-.406-.807-.289-1.314.026a5.269,5.269,0,0,1-5.745-.947c-.382-.461-.55-.216-.8,0-2.179,1.948-4.838,1.469-7.29,1.113-1.076-.156-1.988-.628-3.225-.348a2.756,2.756,0,0,1-3.289-2.642c-.049-1.617,1.2-2.75,3.038-2.842.626-.031,1.507.443,1.752-.716.052-.246.541-.182.835-.106.333.086.3.382.3.633.006,1.123.032,2.248,0,3.37s.5,1.572,1.57,1.551c.994-.019,1.988.006,2.982-.006C252.017,143,252.989,142.412,254.609,140.51Zm-10-.044c.052-.539.081-1.1-.95-1.056-1.438.064-2.426.632-2.355,1.631a1.534,1.534,0,0,0,1.6,1.539c1.047.055,1.682-.7,1.71-2.115Z" transform="translate(-177.667 -101.737)" fill="#18601f"/><path d="M456.623,30.779a14.16,14.16,0,0,1,.076-3.629,1.757,1.757,0,0,1,1.16.928c.929,1.321,1.841,2.655,2.753,3.989.237.346.38.789.912.788a3.8,3.8,0,0,1-.164,2.021,1.034,1.034,0,0,0,.07,1c1.439,2.249,2.654,4.632,4.95,6.257a24.425,24.425,0,0,1,5.08,4.947c2.078,2.658,2.156,5.708,1.842,8.851-.537.059-.7-.362-.972-.7-1.34-1.644-2.224-3.648-3.936-5a2.3,2.3,0,0,1-.615-1.023,2.452,2.452,0,0,0-.492-1.686c-1.584-2.34-3.246-4.635-4.688-7.059C460.658,37.2,457.809,34.5,456.623,30.779Z" transform="translate(-338.045 -20.103)" fill="#18601f"/><path d="M408.139,83.92c-3.757.5-7.121-.216-9.277-3.608a8.366,8.366,0,0,1-.2-9.2,2.114,2.114,0,0,1,.946-1.025c.67-.125.88.43,1.149.829a13.59,13.59,0,0,0,1.764,2.321c-1.059,2.579-.811,3.956.94,5.56a3.723,3.723,0,0,0,2.095.874A8.257,8.257,0,0,1,408.139,83.92Z" transform="translate(-294.24 -51.884)" fill="#18601f"/><path d="M489.732,10.932a10.913,10.913,0,0,1,.15,3.343c-.014.873.3,1.147,1.135,1.086a20.146,20.146,0,0,1,2.071.049,2.876,2.876,0,0,0,.594,1.755c.452.781,1.3,1.38,1.219,2.431a19.039,19.039,0,0,1-4.139.023,3.19,3.19,0,0,0-.261-.846q-2.176-3.327-4.4-6.621a1.487,1.487,0,0,0-.893-.7c-.051-.987-.114-1.974-.151-2.962-.087-2.293-.564-2.805-2.843-2.766a1.262,1.262,0,0,1-1.06-.519,8.842,8.842,0,0,0-1.459-2.556c-.371-.662-1.022-1.194-.872-2.072A4.907,4.907,0,0,1,482.466.17a2.171,2.171,0,0,0,.492,1.554q2.727,4.055,5.432,8.125C488.726,10.351,489.036,10.879,489.732,10.932Z" transform="translate(-354.526 0)" fill="#18601f"/><path d="M144.136,129.626c0,.994.017,1.987,0,2.98a2.435,2.435,0,0,1-2.507,2.554c-.977.028-2.013.205-2.821-.6-.288-.287-.5-.07-.793.036a9.815,9.815,0,0,1-7.36-.044c-.2-.081-.351-.254-.565-.066-1.234,1.083-2.7.719-4.082.557-.586-.069-.527.16-.557.512-.144,1.715-1.388,2.482-2.735,3.16-.34.171-.651.252-.856-.189-.148-.319-.134-.642.21-.766,2.427-.881,2.178-2.911,2.128-4.866-.014-.561.008-1.123,0-1.685-.009-.441.079-.745.623-.758s.676.249.642.712c-.01.129,0,.259,0,.389.035,2.147,1.4,3.035,3.42,2.223a1.087,1.087,0,0,0,.761-1.088c0-.518.022-1.037,0-1.555s.213-.684.7-.678c.448,0,.557.208.615.625.385,2.792.4,2.79,3.208,2.79.648,0,1.3-.009,1.945,0a1.413,1.413,0,0,0,1.6-1.013,1.442,1.442,0,0,0-.762-1.742c-.99-.616-1.962-1.26-2.964-1.857-.78-.465-.877-1.033-.3-1.686.658-.743,1.362-1.444,2.053-2.157.272-.281.528-.581.967-.176.423.39.171.612-.073.957-.531.751-1.9,1.25-1.622,2.087.23.7,1.462,1.093,2.277,1.578a3.267,3.267,0,0,1,1.846,2.759c.086,1.469,1.276,1.228,2.254,1.248,1.04.021,1.49-.524,1.489-1.52,0-1.944,0-3.888,0-5.831,0-.454-.13-.988.641-.994.8-.006.606.561.613.993C144.148,127.553,144.136,128.59,144.136,129.626Z" transform="translate(-90.161 -92.588)" fill="#18601f"/><path d="M23.114,135.205a3.211,3.211,0,0,1-2.5-.568.468.468,0,0,0-.668-.07,4.067,4.067,0,0,1-4.707-.011c-.21-.136-.391-.178-.578-.018-1.072.919-2.367.653-3.6.673-1.211.02-2.422.026-3.632,0a3.44,3.44,0,0,1-3.437-4.082c.059-.42.186-.612.621-.633.528-.025.618.233.662.7.221,2.333.658,2.717,2.97,2.718,1.341,0,2.682-.023,4.022.008.885.021,1.684-.1,1.973-1.072.28-.943-.361-1.415-1.06-1.841-.885-.539-1.751-1.111-2.634-1.653s-.9-1.187-.227-1.9c.652-.692,1.331-1.358,1.988-2.046.31-.325.578-.452.977-.085.449.413.173.661-.118.943-.124.12-.245.244-.367.367-1.62,1.634-1.639,1.666.274,2.828,1.369.831,2.457,1.663,2.645,3.523.143,1.41,1.649.865,2.61.9.818.03,1.26-.463,1.242-1.317-.011-.518,0-1.037.008-1.556.008-.492.355-.505.723-.511s.571.14.568.525q0,.194.007.389c.108,2.449.66,2.885,3.123,2.49a1.35,1.35,0,0,0,1.187-1.457c.031-.6.024-1.21.009-1.815-.011-.437.161-.631.608-.613.336.013.625.064.616.474a9.008,9.008,0,0,1-.162,3.087C25.7,135.046,24.471,135.329,23.114,135.205Z" transform="translate(-2.925 -92.632)" fill="#18601f"/><path d="M456.432,41.132c1.186,3.723,4.035,6.425,5.976,9.687,1.442,2.425,3.1,4.72,4.688,7.059a2.452,2.452,0,0,1,.492,1.686c-1.257-1.09-2.555-2.137-3.76-3.282-1.614-1.533-3.447-2.793-4.935-4.5C456.134,48.61,456.087,44.948,456.432,41.132Z" transform="translate(-337.854 -30.456)" fill="#18601f"/><path d="M551.95,66.691l-.141-.546c.3-.343.058-.429-.234-.49l-1.133-1.285a6,6,0,0,0-1.055-2.271c-.547-.932-1.48-1.666-1.534-2.862,5.619-.727,9.885,6.437,8.069,10.319-.261.1-.286.323-.267.562l-.056.465c-.64.094-.864-.38-1.193-.795C553.588,68.755,553.192,67.385,551.95,66.691Z" transform="translate(-405.656 -43.824)" fill="#18601f"/><path d="M441.478,107.253l3.124.04a1.908,1.908,0,0,0,.407,1.3c1.065,1.536,2.094,3.1,3.118,4.66a2.659,2.659,0,0,0,1.238,1.229l.164,5.182c-1.433-.02-1.516-1.431-2.23-2.187s-.885-1.972-2.109-2.226a14.88,14.88,0,0,1-.012-3.13c.333-.39.022-.445-.266-.512l-1.856-.147a9.373,9.373,0,0,0-1.58-2.606C441.062,108.35,440.671,107.784,441.478,107.253Z" transform="translate(-326.544 -79.415)" fill="#18601f"/><path d="M500.148,11.417c-.7-.053-1.006-.58-1.341-1.082q-2.712-4.065-5.432-8.125a2.171,2.171,0,0,1-.492-1.554c3.564.669,6.181,2.436,7.135,6.138A13.5,13.5,0,0,1,500.148,11.417Z" transform="translate(-364.941 -0.486)" fill="#18601f"/><path d="M102.691,146.4c-.039,2.956-1,4.251-3.795,5.111-.344.106-.638.257-.812-.256-.166-.488,0-.694.444-.865a6.992,6.992,0,0,0,2.27-1.216.944.944,0,0,0,.411-1.016c-.157-.436-.6-.2-.908-.242-.255-.036-.518,0-.777-.014a2.859,2.859,0,0,1-2.8-2.695,2.968,2.968,0,0,1,2.713-2.95,2.91,2.91,0,0,1,3.11,2.341A16.227,16.227,0,0,1,102.691,146.4Zm-2.6.247c1.265.011,1.265.011,1.274-1.011.011-1.29-.586-2.067-1.606-2.09a1.582,1.582,0,0,0-1.667,1.6c.018.991.681,1.489,2,1.5Z" transform="translate(-71.619 -105.327)" fill="#18601f"/><path d="M502.208,116.091c1.712,1.35,2.6,3.354,3.936,5,.275.337.434.758.972.7.07,2.064.551,4.161-.507,6.131-.668-1.67-1.91-2.983-2.809-4.509-.2-.341-.573-.316-.915-.317a17.473,17.473,0,0,1-.144-3.478A7.768,7.768,0,0,0,502.208,116.091Z" transform="translate(-371.859 -85.959)" fill="#18601f"/><path d="M502.948,44.116a1.487,1.487,0,0,1,.893.7q2.227,3.293,4.4,6.621a3.194,3.194,0,0,1,.26.846c-1.03.032-2.064.139-3.089.08-1.608-.093-2.464-1.414-2.6-4.126a18.9,18.9,0,0,1,.132-4.12Z" transform="translate(-372.267 -32.666)" fill="#18601f"/><path d="M461.973,21.038c-.532,0-.676-.442-.912-.788-.912-1.334-1.823-2.668-2.753-3.989a1.757,1.757,0,0,0-1.16-.928,6.394,6.394,0,0,1,2.018-4.142c1.158,1.07,1.592,2.718,2.916,3.655C461.27,16.9,462.227,18.978,461.973,21.038Z" transform="translate(-338.494 -8.287)" fill="#18601f"/><path d="M462.151,155.652c-2.727-.645-5.229-4.017-5.319-7.188-.013-.471.034-.944.054-1.417a1.42,1.42,0,0,1,1.37.812c1.516,2.246,2.991,4.521,4.508,6.767C463.339,155.479,463.106,155.759,462.151,155.652Z" transform="translate(-338.258 -108.873)" fill="#18601f"/><path d="M459.607,114.287a2.66,2.66,0,0,1-1.238-1.229c-1.024-1.564-2.053-3.124-3.118-4.66a1.908,1.908,0,0,1-.407-1.3,10.862,10.862,0,0,1,2.817-.03,2.052,2.052,0,0,1,2.025,2.095A31.344,31.344,0,0,1,459.607,114.287Z" transform="translate(-336.785 -79.222)" fill="#18601f"/><path d="M462.311,149c.956.107,1.188-.173.613-1.025-1.517-2.246-2.991-4.521-4.508-6.767a1.42,1.42,0,0,0-1.37-.812l.02-2.341c1.224.253,1.408,1.482,2.109,2.226s.8,2.167,2.23,2.187a10.371,10.371,0,0,0,1.888,2.305c-.752-.015-.934.289-.518.927l2.521,3.86A3.631,3.631,0,0,1,462.311,149Z" transform="translate(-338.419 -102.225)" fill="#18601f"/><path d="M408.87,65.98a13.584,13.584,0,0,1-1.764-2.321c-.269-.4-.479-.954-1.149-.829a4.828,4.828,0,0,1,3.21-2.132c.31.054.578.028.666-.345l.523-.085a1.836,1.836,0,0,0,.473,1.39,4.977,4.977,0,0,1,1.327,2.566A7.065,7.065,0,0,0,408.87,65.98Z" transform="translate(-300.59 -44.625)" fill="#18601f"/><path d="M467.84,8.2c-1.325-.937-1.758-2.585-2.916-3.655a6.488,6.488,0,0,1,3.623-2.329c-.149.878.5,1.41.872,2.072a8.844,8.844,0,0,1,1.459,2.556A7.66,7.66,0,0,0,467.84,8.2Z" transform="translate(-344.252 -1.643)" fill="#18601f"/><path d="M502.652,143.066c.342,0,.715-.024.915.317.9,1.526,2.141,2.839,2.809,4.509a5.165,5.165,0,0,1-2.158,3.172,1.7,1.7,0,0,0-.4-1.293c-.683-.811-1.287-1.687-1.924-2.537A8.623,8.623,0,0,0,502.652,143.066Z" transform="translate(-371.627 -105.933)" fill="#18601f"/><path d="M560.809,88.1c1.242.694,1.638,2.064,2.456,3.1.329.415.552.888,1.193.795a5.258,5.258,0,0,1-2.745,3.545c-.043-.592-.478-.986-.749-1.46-.436-.762-1.179-1.371-1.146-2.36A5.791,5.791,0,0,0,560.809,88.1Z" transform="translate(-414.515 -65.235)" fill="#18601f"/><path d="M537.459,59.37c.054,1.2.987,1.93,1.534,2.862a6,6,0,0,1,1.055,2.271c-1.326-.985-2.907-.788-4.411-.951.084-1.052-.767-1.65-1.219-2.432a2.876,2.876,0,0,1-.594-1.755Z" transform="translate(-395.263 -43.956)" fill="#18601f"/><path d="M424.684,63.235a4.976,4.976,0,0,0-1.327-2.566,1.836,1.836,0,0,1-.473-1.39c1.173-.561,2.412-.269,3.627-.283.359,1.627,1.678,2.713,2.35,4.165A14.454,14.454,0,0,1,424.684,63.235Z" transform="translate(-313.119 -43.636)" fill="#18601f"/><path d="M550.223,102.036c-.033.989.71,1.6,1.146,2.36.271.474.706.867.749,1.46a4.731,4.731,0,0,1-3.185,1.594c-.07-.68-.579-1.131-.888-1.685-.429-.771-1.2-1.369-1.186-2.36A5.787,5.787,0,0,0,550.223,102.036Z" transform="translate(-404.92 -75.552)" fill="#18601f"/><path d="M481.015,168.727l-2.521-3.86c-.416-.637-.234-.941.518-.927,1.056.526,2.2.3,3.306.381-.116.994.588,1.631,1.046,2.371.311.5.733.972.273,1.6A3.956,3.956,0,0,1,481.015,168.727Z" transform="translate(-354.138 -121.389)" fill="#18601f"/><path d="M537.221,107.308c-.01.991.757,1.59,1.186,2.36.309.554.819,1.005.888,1.685a7.489,7.489,0,0,1-3.376.2,2.917,2.917,0,0,0-.624-1.478c-.495-.907-1.41-1.6-1.453-2.742Z" transform="translate(-395.282 -79.456)" fill="#18601f"/><path d="M495.133,164.726c.46-.628.038-1.1-.273-1.6-.458-.74-1.162-1.377-1.046-2.371a10.04,10.04,0,0,0,2.088-1.631c.637.849,1.241,1.726,1.924,2.537a1.694,1.694,0,0,1,.4,1.293A4.812,4.812,0,0,1,495.133,164.726Z" transform="translate(-365.634 -117.823)" fill="#18601f"/><path d="M527.17,107.394c.043,1.145.958,1.835,1.453,2.742a2.917,2.917,0,0,1,.624,1.478c-.73.022-1.46.066-2.19.062a2.05,2.05,0,0,1-2.225-2.372C524.857,108.032,525.686,107.355,527.17,107.394Z" transform="translate(-388.611 -79.518)" fill="#18601f"/><path d="M216.063,131.527c0-1.333.016-2.665-.008-4-.009-.526.135-.8.714-.794.6,0,.557.387.556.783q0,4.062,0,8.124c0,.382.069.779-.549.79-.592.01-.727-.256-.719-.779C216.077,134.278,216.063,132.9,216.063,131.527Z" transform="translate(-159.977 -93.84)" fill="#18601f"/><path d="M439.227,63.288c-.671-1.451-1.99-2.538-2.35-4.165.725-.006,1.45-.031,2.174-.013a2.111,2.111,0,0,1,2.234,2.113Q441.362,63.028,439.227,63.288Z" transform="translate(-323.485 -43.764)" fill="#18601f"/><path d="M432.491,106.662c-.807.531-.416,1.1,0,1.6a9.372,9.372,0,0,1,1.58,2.606,6.67,6.67,0,0,1-2.614-.009,8.256,8.256,0,0,0-2.584-4.246A9.031,9.031,0,0,1,432.491,106.662Z" transform="translate(-317.557 -78.824)" fill="#18601f"/><path d="M105.648,76.6c-.926.152-1.444-.014-1.425-1.167.017-1.023.295-1.345,1.312-1.284.84.051,1.473-.021,1.409,1.185C106.892,76.306,106.714,76.835,105.648,76.6Z" transform="translate(-77.171 -54.897)" fill="#18601f"/><path d="M119.258,74.179c1.166-.286,1.293.295,1.329,1.244.04,1.046-.377,1.191-1.277,1.19-.933,0-1.388-.13-1.357-1.25C117.983,74.311,118.263,73.893,119.258,74.179Z" transform="translate(-87.337 -54.861)" fill="#18601f"/><path d="M232.5,17.521c.3,1.182-.424,1.16-1.3,1.225-1.115.083-1.215-.412-1.268-1.344-.067-1.159.49-1.182,1.38-1.233C232.41,16.106,232.7,16.539,232.5,17.521Z" transform="translate(-170.248 -11.968)" fill="#18601f"/><path d="M111.308,88.421c-.175-.906.078-1.361,1.114-1.275.793.066,1.517-.1,1.428,1.144-.064.888-.1,1.437-1.228,1.354C111.75,89.58,111.041,89.581,111.308,88.421Z" transform="translate(-82.376 -64.519)" fill="#18601f"/><path d="M358.805,23.026c.98-.191,1.369.08,1.351,1.1-.017.967-.234,1.319-1.278,1.33-1.071.01-1.26-.384-1.254-1.333S357.884,22.728,358.805,23.026Z" transform="translate(-264.802 -16.981)" fill="#18601f"/><path d="M148.636,135.217c.516-.073.655.2.683.667.037.621-.31.675-.8.68-.553.006-.6-.3-.6-.734C147.912,135.3,148.173,135.158,148.636,135.217Z" transform="translate(-109.525 -100.112)" fill="#18601f"/><path d="M156.813,135.216c.487-.061.681.159.683.653s-.181.689-.674.692c-.526,0-.778-.163-.756-.737C156.085,135.291,156.363,135.177,156.813,135.216Z" transform="translate(-115.557 -100.113)" fill="#18601f"/><path d="M282.949,129.865c.076.492-.137.693-.637.679-.423-.011-.753-.038-.749-.6,0-.519.152-.782.732-.765C282.79,129.193,283.01,129.367,282.949,129.865Z" transform="translate(-208.483 -95.65)" fill="#18601f"/><path d="M60.681,170.515c-.436.033-.769-.026-.737-.592.023-.408.012-.757.588-.757.5,0,.814.086.812.683C61.341,170.335,61.179,170.576,60.681,170.515Z" transform="translate(-44.384 -125.258)" fill="#18601f"/><path d="M69.514,169.8c.05.475-.133.73-.64.711-.4-.016-.764-.01-.775-.582-.01-.527.144-.787.719-.773C69.282,169.171,69.568,169.282,69.514,169.8Z" transform="translate(-50.424 -125.254)" fill="#18601f"/><path d="M86.3,134.3c.032.409-.115.645-.567.643-.408,0-.769,0-.763-.571,0-.4.1-.653.564-.643C85.938,133.742,86.325,133.738,86.3,134.3Z" transform="translate(-62.916 -99.022)" fill="#18601f"/><path d="M368.215,134.348c.044.551-.313.6-.735.6s-.59-.188-.6-.615c-.01-.551.309-.606.737-.6S368.252,133.912,368.215,134.348Z" transform="translate(-271.657 -99.02)" fill="#18601f"/><path d="M577.9,99.7c-.02-.239.005-.457.267-.562C578.393,99.477,578.045,99.542,577.9,99.7Z" transform="translate(-427.901 -73.408)" fill="#18601f"/><path d="M562.155,84.109c.292.061.532.147.234.49A.425.425,0,0,1,562.155,84.109Z" transform="translate(-416.237 -62.279)" fill="#18601f"/><path d="M418.988,60.542c-.088.373-.356.4-.666.345C418.477,60.643,418.666,60.463,418.988,60.542Z" transform="translate(-309.746 -44.814)" fill="#18601f"/><path d="M456.049,124.027c.288.067.6.122.266.512Z" transform="translate(-337.681 -91.836)" fill="#18601f"/></g></g></g></svg>