<?xml version="1.0" encoding="utf-8"?>
<!-- Generator: Adobe Illustrator 27.0.1, SVG Export Plug-In . SVG Version: 6.00 Build 0)  -->
<svg version="1.1" id="Layer_1" xmlns="http://www.w3.org/2000/svg" xmlns:xlink="http://www.w3.org/1999/xlink" x="0px" y="0px"
	 viewBox="0 0 489 475" style="enable-background:new 0 0 489 475;" xml:space="preserve">
<style type="text/css">
	.st0{clip-path:url(#SVGID_00000178201973219033455430000007690082249617546132_);}
	.st1{fill:url(#SVGID_00000118376224220724233520000016482446814985328312_);}
	.st2{fill:none;}
	.st3{fill:#FDBA4D;}
	.st4{fill:#9D9D9D;}
	.st5{opacity:0.58;}
	.st6{fill:#FFFFFF;}
</style>
<g>
	<defs>
		<rect id="SVGID_1_" width="489" height="475"/>
	</defs>
	<clipPath id="SVGID_00000122689190707339921470000016953947174477842870_">
		<use xlink:href="#SVGID_1_"  style="overflow:visible;"/>
	</clipPath>
	<g id="b" style="clip-path:url(#SVGID_00000122689190707339921470000016953947174477842870_);">
		<g transform="translate(0 74.931)">
			
				<linearGradient id="SVGID_00000109015364948621650510000007054067016766024607_" gradientUnits="userSpaceOnUse" x1="120.2546" y1="288.4875" x2="120.2546" y2="287.4875" gradientTransform="matrix(489 0 0 -270 -58560 77891.6328)">
				<stop  offset="0" style="stop-color:#5E8F63"/>
				<stop  offset="1" style="stop-color:#18601F"/>
			</linearGradient>
			<path style="fill:url(#SVGID_00000109015364948621650510000007054067016766024607_);" d="M135,0h354v270H135
				C60.4,270,0,209.6,0,135v0C0,60.4,60.4,0,135,0z"/>
			<rect x="0.5" y="0.5" class="st2" width="488" height="269"/>
		</g>
		<path class="st3" d="M365.4,17.5l-0.6-2.2c2.7-1.7,3.5-5.3,1.7-8c-1.4-2.1-3.9-3.1-6.3-2.5L349,7.6c-3.1,0.8-5,3.9-4.3,7
			c0.6,2.4,2.6,4.2,5.1,4.4l0.6,2.2c-5.2,1.3-8.3,6.6-7.1,11.7l3.3,13.2c1.3,5.2,6.6,8.4,11.8,7.1l15.1-3.8
			c5.2-1.3,8.3-6.6,7.1-11.8l-3.3-13.2C375.9,19.4,370.6,16.2,365.4,17.5L365.4,17.5z M349.9,11.4l11.3-2.8c1-0.3,2.1,0.4,2.4,1.4
			c0.3,1-0.4,2.1-1.4,2.4c0,0,0,0,0,0l-11.3,2.8c-1,0.3-2.1-0.4-2.4-1.4S348.9,11.7,349.9,11.4C349.9,11.4,349.9,11.4,349.9,11.4z
			 M376.7,38.7c0.8,3.1-1.1,6.3-4.2,7.1c0,0,0,0,0,0l-15.1,3.8c-3.1,0.8-6.3-1.1-7.1-4.2c0,0,0,0,0,0l-3.3-13.2
			c-0.8-3.1,1.1-6.3,4.2-7.1l1.9-0.5c1-0.3,1.7-1.3,1.4-2.4l0,0l-0.9-3.8l7.5-1.9l1,3.8c0.3,1,1.3,1.6,2.3,1.4l1.9-0.5
			c3.1-0.8,6.3,1.1,7.1,4.2L376.7,38.7z M369.2,32.6c0.3,1-0.4,2.1-1.4,2.4l-3.8,0.9l0.9,3.8c0.3,1-0.4,2.1-1.4,2.4
			c-1,0.3-2.1-0.4-2.4-1.4l-0.9-3.8l-3.8,0.9c-1,0.3-2.1-0.4-2.4-1.4c-0.3-1,0.4-2.1,1.4-2.4l3.8-0.9l-0.9-3.8
			c-0.3-1,0.4-2.1,1.4-2.4c1-0.3,2.1,0.4,2.4,1.4c0,0,0,0,0,0l0.9,3.8l3.8-0.9C367.9,30.9,368.9,31.5,369.2,32.6z"/>
		<g transform="translate(311.513 421.931) rotate(60)">
			<g transform="translate(0 0)">
				<path class="st4" d="M31.1,30.8c0,5,0,10,0,15c0.1,8.3-6.4,15.2-14.7,15.5c-8.3,0.4-15.7-5.7-16-14.1c-0.4-11-0.5-22.1,0-33.1
					C0.7,5.7,8.1-0.4,16.4,0c8.3,0.4,14.8,7.2,14.7,15.5C31.1,20.6,31.1,25.7,31.1,30.8z M15.7,31.5L15.7,31.5c-3.7,0-7.4,0-11.1,0
					c-1.3,0-2.1,0.2-2.1,1.8c0.1,4.3-0.1,8.6,0.1,12.8C2.7,53.4,8.8,59.1,16,58.9c7.1-0.2,12.8-6,12.7-13.1c0.1-4,0-8.1,0.1-12.1
					c0-1.5-0.3-2.2-2-2.2C23.1,31.6,19.4,31.5,15.7,31.5z M28.8,29.1c0-3.9,0-7.6,0-11.3c0-1.7-0.1-3.4-0.3-5.1
					C27.2,6.7,22,2.4,15.8,2.4c-6.1-0.1-12,4-12.8,10c-0.7,5.4-0.1,11-0.1,16.7L28.8,29.1z"/>
				<path class="st4" d="M13.5,54.4c-3.5-0.7-6.4-3.2-7.7-6.5c-0.2-0.5,0.3-1.2,0.5-1.8c0.5,0.3,1.3,0.4,1.5,0.8
					c1.2,2.5,3.3,4.4,6,5.2c0.4,0.1,0.7,0.9,1.1,1.3L13.5,54.4z"/>
				<path class="st4" d="M25.9,15.5c-0.2,0.2-0.5,0.8-0.9,0.9c-0.5,0-1-0.2-1.3-0.7c-0.8-2.8-2.8-5.1-5.4-6.4
					c-0.4-0.3-0.6-0.8-0.6-1.4C18,7.5,18.5,7.2,19,7.2C21.5,7.4,26,12.6,25.9,15.5z"/>
			</g>
		</g>
		<g transform="translate(361.451 200.374) rotate(-45)" class="st5">
			<g transform="translate(0)">
				<path class="st6" d="M30.1,11.8c0,3.3,0,6.4,0,9.5C30,34,29.9,46.8,29.7,59.5c0,1.5,0.4,3.1-1.8,3.5c-0.3,0.1-0.6,1.3-0.6,1.9
					c-0.2,5.6-0.2,5.6-6,5.7c-0.6,0-1.1,0.1-2,0.2c0,5.3,0,10.5,0,15.6c0.1,1.4,0.1,2.9-0.1,4.3c-0.1,0.7-0.8,1.4-1.2,2.1
					c-0.4-0.7-1.1-1.4-1.1-2.2c-0.1-4.1-0.1-8.2-0.1-12.3c0-2.4,0-4.8,0-7.7c-1.9,0-3.7-0.1-5.4,0c-1.8,0.1-2.7-0.6-2.5-2.5
					C9,67,9,65.8,8.9,64.5c0-0.5-0.2-1.3-0.4-1.4c-2.9-0.6-2-2.9-2-4.6C6.3,43.9,6.1,29.2,6.1,14.5c0-2.1-0.4-3-2.8-2.8
					C2.2,11.8,0,10.9,0,10.6c0.2-2.2,2.1-1.3,3.4-1.4c4.4-0.1,8.7,0,13.3,0V2.5c-2.7,0-5.3,0.1-8-0.1C7.7,2.2,6.8,1.8,6.1,1.2
					c0.8-0.4,1.6-1.1,2.4-1.1C14.9,0,21.2,0,27.6,0.1c0.8,0,1.7,0.9,2.5,1.3c-0.8,0.5-1.6,0.8-2.5,1c-2.7,0.1-5.3,0-7.9,0
					c-0.2,0.3-0.3,0.6-0.3,0.9C19,9.2,19,9.2,24.8,9.2c2.9,0,5.9-0.1,8.8,0.1c0.9,0.1,1.8,0.9,2.8,1.3c-0.9,0.5-1.9,0.8-2.9,1.1
					C32.3,11.8,31.2,11.8,30.1,11.8z M27.2,43.6v-6.8c-2.7,0-5.3,0.1-7.8-0.1c-0.7,0-1.4-0.7-2.1-1.1c0.7-0.4,1.4-1.1,2.2-1.2
					c2.6-0.1,5.1-0.1,7.9-0.1v-5.5c-2.5,0-4.9,0.1-7.3-0.1c-0.9-0.2-1.9-0.6-2.7-1.1c0.8-0.5,1.7-0.9,2.6-1.2c2.5-0.2,5-0.1,7.5-0.1
					V21c-2.7,0-5.2,0.1-7.7-0.1c-0.8-0.1-1.6-0.8-2.4-1.2c0.8-0.4,1.6-1.1,2.4-1.2c2.6-0.2,5.1-0.1,7.9-0.1v-6.6H8.9v48.3h18.3V46
					c-2.5,0-4.9,0.1-7.3-0.1c-0.9-0.2-1.7-0.6-2.5-1.1c0.8-0.6,1.6-1,2.6-1.2C22.3,43.5,24.6,43.6,27.2,43.6z M24.7,63.1H11.5v5.1
					h13.1V63.1z"/>
			</g>
		</g>
	</g>
</g>
</svg>
